<?xml version="1.0" encoding="utf-8"?>
<!-- Generator: Adobe Illustrator 16.0.0, SVG Export Plug-In . SVG Version: 6.00 Build 0)  -->
<!DOCTYPE svg PUBLIC "-//W3C//DTD SVG 1.1//EN" "http://www.w3.org/Graphics/SVG/1.1/DTD/svg11.dtd">
<svg version="1.1" id="Layer_1" xmlns="http://www.w3.org/2000/svg" xmlns:xlink="http://www.w3.org/1999/xlink" x="0px" y="0px"
	 width="411.904px" height="407.998px" viewBox="0 0 411.904 407.998" enable-background="new 0 0 411.904 407.998"
	 xml:space="preserve">
<g>
	<path fill="#FFFFFF" d="M313.012,33.446c0,0-56.667-41-135.789-32.21c-32.568,3.618-59.333,26-59.333,58.074
		s26.563,58.075,59.333,58.075c32.768,0,59.333-26.001,59.333-58.075c0-8.012-1.658-15.645-4.655-22.587
		C261.012,23.112,313.012,33.446,313.012,33.446z M177.223,86.446c-14.638,0-26.5-11.863-26.5-26.5c0-14.636,11.862-26.5,26.5-26.5
		c14.636,0,26.5,11.864,26.5,26.5S191.859,86.446,177.223,86.446z"/>
</g>
<path fill="#B2AA4F" d="M266.32,85.322l16.602,98.232l-40.205,6.795l-6.429-38.038l-18.802,3.178l-6.449-38.161
	c0,0,9.688-4.768,15.161-10.382c5.473-5.613,10.618-16.637,10.618-16.637L266.32,85.322z"/>
<path fill="#B2AA4F" d="M378.453,97.466l-98.278,16.331l-6.684-40.225l38.056-6.322l-3.126-18.812l38.181-6.344
	c0,0,4.739,9.699,10.34,15.189c5.599,5.487,16.606,10.662,16.606,10.662L378.453,97.466z"/>
<g>
	<path fill="#FFFFFF" d="M33.438,95.5c0,0-40.996,56.669-32.202,135.792c3.621,32.567,26.005,59.332,58.078,59.328
		c32.075-0.002,58.073-26.567,58.069-59.336c-0.002-32.77-26.004-59.333-58.076-59.331c-8.014,0.001-15.646,1.658-22.587,4.656
		C23.108,147.501,33.438,95.5,33.438,95.5z M86.448,231.286c0.001,14.635-11.863,26.5-26.499,26.502
		c-14.636,0-26.501-11.863-26.502-26.498c-0.001-14.638,11.863-26.501,26.499-26.502S86.447,216.649,86.448,231.286z"/>
</g>
<path fill="#B2AA4F" d="M85.317,142.188l98.229-16.607l6.799,40.205l-38.037,6.431l3.179,18.803l-38.162,6.451
	c0,0-4.767-9.688-10.383-15.16c-5.613-5.474-16.637-10.617-16.637-10.617L85.317,142.188z"/>
<path fill="#B2AA4F" d="M97.454,30.055l16.338,98.275l-40.223,6.687l-6.326-38.055l-18.811,3.126l-6.348-38.178
	c0,0,9.7-4.742,15.189-10.342c5.488-5.599,10.662-16.608,10.662-16.608L97.454,30.055z"/>
<g>
	<path fill="#FFFFFF" d="M98.887,374.551c0,0,56.665,41.002,135.785,32.215c32.568-3.617,59.335-25.999,59.338-58.072
		c0.001-32.073-26.562-58.074-59.331-58.075c-32.771-0.003-59.335,25.997-59.336,58.071c0,8.011,1.656,15.645,4.652,22.587
		C150.886,384.885,98.887,374.551,98.887,374.551z M234.678,321.555c14.635,0,26.499,11.865,26.496,26.501
		c0,14.636-11.862,26.499-26.5,26.499c-14.637-0.001-26.5-11.865-26.498-26.501C208.178,333.418,220.041,321.554,234.678,321.555z"
		/>
</g>
<path fill="#B2AA4F" d="M145.58,322.676l-16.598-98.232l40.206-6.793l6.426,38.038l18.803-3.177l6.448,38.161
	c0,0-9.688,4.768-15.162,10.382c-5.473,5.614-10.618,16.637-10.618,16.637L145.58,322.676z"/>
<path fill="#B2AA4F" d="M33.448,310.526l98.278-16.326l6.682,40.226l-38.055,6.319l3.125,18.812l-38.181,6.342
	c0,0-4.739-9.7-10.339-15.188c-5.599-5.488-16.606-10.664-16.606-10.664L33.448,310.526z"/>
<g>
	<path fill="#FFFFFF" d="M378.462,312.506c0,0,41-56.668,32.209-135.792c-3.62-32.567-26.005-59.333-58.076-59.33
		c-32.075,0-58.073,26.566-58.073,59.333c0.001,32.771,26.002,59.333,58.076,59.332c8.012,0,15.644-1.656,22.587-4.654
		C388.794,260.505,378.462,312.506,378.462,312.506z M325.458,176.717c-0.001-14.635,11.863-26.5,26.499-26.501
		c14.636,0,26.501,11.864,26.501,26.499c0.001,14.638-11.861,26.501-26.499,26.501C337.323,203.219,325.458,191.354,325.458,176.717
		z"/>
</g>
<path fill="#B2AA4F" d="M326.585,265.814l-98.23,16.604l-6.795-40.205l38.037-6.429l-3.18-18.804l38.162-6.45
	c0,0,4.769,9.688,10.382,15.16c5.613,5.475,16.639,10.618,16.639,10.618L326.585,265.814z"/>
<path fill="#B2AA4F" d="M314.444,377.948l-16.334-98.276l40.223-6.686l6.324,38.055l18.812-3.126l6.345,38.181
	c0,0-9.7,4.741-15.189,10.34c-5.486,5.6-10.663,16.609-10.663,16.609L314.444,377.948z"/>
</svg>
